<svg width="32" height="32" viewBox="0 0 32 32" fill="none" xmlns="http://www.w3.org/2000/svg">
  <path d="M9.33333 16H12V18.6666H9.33333V16ZM28 7.99996V26.6666C28 27.3739 27.719 28.0521 27.219 28.5522C26.7189 29.0523 26.0406 29.3333 25.3333 29.3333H6.66667C5.95942 29.3333 5.28115 29.0523 4.78105 28.5522C4.28095 28.0521 4 27.3739 4 26.6666V7.99996C4 7.29272 4.28095 6.61444 4.78105 6.11434C5.28115 5.61424 5.95942 5.33329 6.66667 5.33329H8V2.66663H10.6667V5.33329H21.3333V2.66663H24V5.33329H25.3333C26.0406 5.33329 26.7189 5.61424 27.219 6.11434C27.719 6.61444 28 7.29272 28 7.99996ZM6.66667 10.6666H25.3333V7.99996H6.66667V10.6666ZM25.3333 26.6666V13.3333H6.66667V26.6666H25.3333ZM20 18.6666V16H22.6667V18.6666H20ZM14.6667 18.6666V16H17.3333V18.6666H14.6667ZM9.33333 21.3333H12V24H9.33333V21.3333ZM20 24V21.3333H22.6667V24H20ZM14.6667 24V21.3333H17.3333V24H14.6667Z" fill="black" />
</svg>
