<svg width="21" height="21" viewBox="0 0 21 21" fill="none" xmlns="http://www.w3.org/2000/svg">
<path d="M6.125 10.5H7.875V12.25H6.125V10.5ZM18.375 5.25V17.5C18.375 17.9641 18.1906 18.4092 17.8624 18.7374C17.5342 19.0656 17.0891 19.25 16.625 19.25H4.375C3.91087 19.25 3.46575 19.0656 3.13756 18.7374C2.80937 18.4092 2.625 17.9641 2.625 17.5V5.25C2.625 4.78587 2.80937 4.34075 3.13756 4.01256C3.46575 3.68437 3.91087 3.5 4.375 3.5H5.25V1.75H7V3.5H14V1.75H15.75V3.5H16.625C17.0891 3.5 17.5342 3.68437 17.8624 4.01256C18.1906 4.34075 18.375 4.78587 18.375 5.25ZM4.375 7H16.625V5.25H4.375V7ZM16.625 17.5V8.75H4.375V17.5H16.625ZM13.125 12.25V10.5H14.875V12.25H13.125ZM9.625 12.25V10.5H11.375V12.25H9.625ZM6.125 14H7.875V15.75H6.125V14ZM13.125 15.75V14H14.875V15.75H13.125ZM9.625 15.75V14H11.375V15.75H9.625Z" fill="white"/>
</svg>
