<svg width="32" height="32" viewBox="0 0 32 32" fill="none" xmlns="http://www.w3.org/2000/svg">
  <path d="M29.5781 15.7813L17.5031 3.71258L16.6937 2.9032C16.5093 2.72001 16.2599 2.61719 16 2.61719C15.74 2.61719 15.4906 2.72001 15.3062 2.9032L2.42186 15.7813C2.23289 15.9696 2.08355 16.1937 1.98265 16.4406C1.88174 16.6875 1.83132 16.9521 1.83436 17.2188C1.84686 18.3188 2.76248 19.197 3.86248 19.197H5.19061V29.3751H26.8094V19.197H28.1656C28.7 19.197 29.2031 18.9876 29.5812 18.6095C29.7674 18.4239 29.9149 18.2032 30.0152 17.9602C30.1156 17.7172 30.1667 17.4567 30.1656 17.1938C30.1656 16.6626 29.9562 16.1595 29.5781 15.7813ZM17.75 27.1251H14.25V20.7501H17.75V27.1251ZM24.5594 16.947V27.1251H19.75V20.0001C19.75 19.3095 19.1906 18.7501 18.5 18.7501H13.5C12.8094 18.7501 12.25 19.3095 12.25 20.0001V27.1251H7.44061V16.947H4.44061L16.0031 5.39383L16.725 6.1157L27.5625 16.947H24.5594Z" fill="black" />
</svg>
