<svg width="31" height="31" viewBox="0 0 31 31" fill="none" xmlns="http://www.w3.org/2000/svg">
  <path d="M7.75 17.4375C8.82005 17.4375 9.6875 16.5701 9.6875 15.5C9.6875 14.4299 8.82005 13.5625 7.75 13.5625C6.67995 13.5625 5.8125 14.4299 5.8125 15.5C5.8125 16.5701 6.67995 17.4375 7.75 17.4375Z" fill="black"/>
  <path d="M15.5 17.4375C16.5701 17.4375 17.4375 16.5701 17.4375 15.5C17.4375 14.4299 16.5701 13.5625 15.5 13.5625C14.4299 13.5625 13.5625 14.4299 13.5625 15.5C13.5625 16.5701 14.4299 17.4375 15.5 17.4375Z" fill="black"/>
  <path d="M23.25 17.4375C24.3201 17.4375 25.1875 16.5701 25.1875 15.5C25.1875 14.4299 24.3201 13.5625 23.25 13.5625C22.1799 13.5625 21.3125 14.4299 21.3125 15.5C21.3125 16.5701 22.1799 17.4375 23.25 17.4375Z" fill="black"/>
</svg>
