<svg width="143" height="143" viewBox="0 0 143 143" fill="none" xmlns="http://www.w3.org/2000/svg">
<path d="M13.9319 62.419C13.3538 60.262 13.3537 57.9908 13.9317 55.8338C14.5096 53.6768 15.6453 51.7098 17.2244 50.1308L50.1301 17.2252C51.7091 15.646 53.676 14.5104 55.8331 13.9324C57.9901 13.3545 60.2612 13.3545 62.4183 13.9327L93.2098 22.1832C93.5302 17.9649 94.9989 13.9146 97.4567 10.4711L60.3705 0.53488C57.7086 -0.178308 54.9058 -0.178294 52.244 0.534927C49.582 1.24815 47.1547 2.64945 45.206 4.59801L4.59799 45.206C2.64944 47.1548 1.24814 49.582 0.534927 52.2439C-0.178294 54.9058 -0.178309 57.7086 0.53488 60.3705L10.8533 98.879C14.2264 96.3031 18.2423 94.7031 22.4628 94.2545L13.9319 62.419Z" fill="white"/>
<path d="M119.596 47.0229L128.411 79.9224C128.99 82.0798 128.989 84.3508 128.411 86.5074C127.833 88.6648 126.697 90.6315 125.118 92.2106L92.2124 125.117C90.6333 126.696 88.6666 127.831 86.5092 128.41C84.3525 128.987 82.0808 128.987 79.9242 128.41L48.0887 119.879C47.6402 124.099 46.0405 128.115 43.4642 131.488L81.9727 141.807C84.6344 142.52 87.4373 142.52 90.099 141.807C92.7614 141.093 95.1883 139.692 97.1372 137.743L137.745 97.1355C139.694 95.1865 141.095 92.7596 141.808 90.0972C142.522 87.4356 142.522 84.6326 141.808 81.971L131.101 42.0208C127.799 44.7158 123.818 46.4467 119.596 47.0229Z" fill="white"/>
<path d="M11.7793 104.19C9.17132 106.798 7.39526 110.121 6.67572 113.738C5.95617 117.355 6.32546 121.105 7.73687 124.512C9.14823 127.919 11.5384 130.832 14.6049 132.881C17.6716 134.93 21.2769 136.024 24.9651 136.024C28.6533 136.024 32.2587 134.93 35.3252 132.881C38.3919 130.832 40.782 127.919 42.1934 124.512C43.6048 121.105 43.9741 117.355 43.2545 113.738C42.535 110.121 40.7589 106.798 38.151 104.19C34.6511 100.698 29.9091 98.7369 24.9651 98.7369C20.0212 98.7369 15.2791 100.698 11.7793 104.19Z" fill="white"/>
<path d="M103.226 10.8178C100.618 13.4257 98.8414 16.7483 98.1225 20.3657C97.4028 23.983 97.7719 27.7324 99.1834 31.1399C100.595 34.5473 102.985 37.4597 106.051 39.5088C109.118 41.5578 112.723 42.6515 116.411 42.6515C120.1 42.6515 123.705 41.5578 126.772 39.5088C129.838 37.4597 132.228 34.5473 133.64 31.1399C135.051 27.7324 135.42 23.983 134.701 20.3657C133.982 16.7483 132.205 13.4257 129.597 10.8178C126.098 7.3258 121.355 5.3647 116.411 5.3647C111.468 5.3647 106.725 7.3258 103.226 10.8178Z" fill="white"/>
<path d="M82.1172 120.601C81.3682 120.601 80.6231 120.503 79.8995 120.31L50.7581 112.501C49.7865 107.312 47.2691 102.538 43.5362 98.8049C39.8033 95.0722 35.0292 92.5542 29.8403 91.5828L22.0322 62.4438C21.6451 60.9903 21.6462 59.4607 22.0355 58.0079C22.4248 56.555 23.1886 55.2298 24.2506 54.1646L54.1611 24.2534C55.225 23.1893 56.5503 22.4242 58.0037 22.0347C59.4573 21.6453 60.9876 21.6454 62.441 22.035L90.7654 29.6245C91.8889 34.7814 94.5436 39.4786 98.382 43.101C102.22 46.7234 107.063 49.1021 112.276 49.9255L120.307 79.9023C120.694 81.3563 120.693 82.886 120.303 84.3384C119.914 85.7916 119.15 87.1167 118.088 88.1822L88.1771 118.093C87.3833 118.89 86.4382 119.524 85.3981 119.954C84.358 120.385 83.243 120.605 82.1172 120.601Z" fill="white"/>
</svg>
