<svg width="75" height="30" viewBox="0 0 75 30" fill="none" xmlns="http://www.w3.org/2000/svg">
<path d="M55.8892 12.748C55.8892 15.4756 56.7427 16.8394 58.4497 16.8394C59.6372 16.8394 61.6875 15.8003 64.6006 13.7222C67.2354 11.7739 68.8032 10.5493 69.3042 10.0483C70.4546 9.0835 71.6606 8.60107 72.9224 8.60107C73.4604 8.60107 73.915 8.78662 74.2861 9.15771C74.6758 9.51025 74.8706 10.0483 74.8706 10.772C74.8706 11.4956 74.6943 12.1543 74.3418 12.748C73.9893 13.3418 73.5347 13.9541 72.978 14.585C72.4399 15.2158 71.7627 15.9209 70.9463 16.7002C70.1484 17.4795 69.23 18.3052 68.1909 19.1772C67.1519 20.0308 66.0107 20.8843 64.7676 21.7378C63.543 22.5913 62.272 23.3613 60.9546 24.0479C57.9858 25.5693 55.3047 26.3301 52.9111 26.3301C50.165 26.3301 48.3003 25.0869 47.3169 22.6006C46.7417 21.1719 46.4541 19.4556 46.4541 17.4517L38.355 22.9346C32.8071 26.8311 29.5044 28.8999 28.4468 29.1411C27.9087 29.271 27.3613 29.3359 26.8047 29.3359C26.2666 29.3359 25.7563 29.2803 25.2739 29.1689C24.7915 29.0762 24.3647 28.9092 23.9937 28.668C23.1401 28.167 22.7134 27.4248 22.7134 26.4414C22.7134 26.0518 22.9731 25.1055 23.4927 23.6025L25.8862 17.0342C26.6284 14.9189 26.9995 13.6479 26.9995 13.2212C26.9995 13.0728 26.9067 12.9985 26.7212 12.9985C26.5356 12.9985 26.1924 13.1934 25.6914 13.583C25.1904 13.9727 24.5874 14.4736 23.8823 15.0859L17.2583 20.875L13.7793 23.7695C10.2168 26.6084 7.31299 28.0278 5.06787 28.0278C4.01025 28.0278 2.94336 27.5547 1.86719 26.6084C0.698242 25.6064 0.11377 24.4004 0.11377 22.9902C0.11377 21.5801 0.25293 20.04 0.53125 18.3701C0.791016 16.7002 1.17139 15.0952 1.67236 13.5552C2.17334 11.9966 2.79492 10.54 3.53711 9.18555C4.2793 7.8125 5.12354 6.625 6.06982 5.62305C8.11084 3.43359 10.5137 2.33887 13.2783 2.33887C16.0615 2.33887 17.4531 3.15527 17.4531 4.78809C17.4531 5.49316 17.0728 6.56934 16.312 8.0166C14.6978 11.208 13.8906 12.9336 13.8906 13.1934C13.8906 13.4346 13.9648 13.6294 14.1133 13.7778C14.2803 13.9077 14.4565 13.9727 14.6421 13.9727C15.0317 13.9727 15.5884 13.6572 16.312 13.0264C21.0806 8.85156 24.0771 6.26318 25.3018 5.26123C26.5449 4.25928 27.7417 3.37793 28.8921 2.61719C31.5269 0.891602 33.6235 0.0288086 35.1821 0.0288086C36.4624 0.0288086 37.5015 0.23291 38.2993 0.641113C39.6909 1.36475 40.3867 2.18115 40.3867 3.09033C40.3867 3.99951 40.2568 5.0293 39.9971 6.17969C39.7559 7.33008 39.4868 8.44336 39.1899 9.51953L38.355 12.3584C38.0952 13.1748 37.9653 13.8057 37.9653 14.251C37.9653 14.6777 38.1509 14.8911 38.522 14.8911C39.4126 14.8911 41.1846 13.6294 43.8379 11.106L46.5376 8.57324C49.6362 5.79004 51.9834 4.39844 53.5791 4.39844C54.3398 4.39844 55.0171 4.69531 55.6108 5.28906C56.6499 6.32812 57.1694 7.2373 57.1694 8.0166C57.1694 8.44336 57.021 9.01855 56.7241 9.74219C56.1675 11.0967 55.8892 12.0986 55.8892 12.748Z" fill="#67D4D2" fill-opacity="0.8"/>
</svg>
